<svg id="Warstwa_1" data-name="Warstwa 1" xmlns="http://www.w3.org/2000/svg" viewBox="0 0 1248.31 493.31"><defs><style>.cls-1{fill:#a32424;}.cls-2{font-size:271.24px;font-family:Rubik-Bold, Rubik;font-weight:700;}.cls-3{letter-spacing:-0.02em;}.cls-4{font-size:164.52px;fill:#777;font-family:Rubik-Regular, Rubik;}.cls-5{letter-spacing:-0.01em;}.cls-6{letter-spacing:-0.02em;}.cls-7{letter-spacing:0em;}.cls-8{letter-spacing:-0.02em;}</style></defs><path class="cls-1" d="M451.73,31.27,346.16,136.84l26,26L358,177.05l-26-26-84.79,84.79,26,26L259,276.05l-26-26-80.79,80.79,26,26L164,371.05l-26-26L35.27,447.73C23.36,459.64,31.79,480,48.63,480H465.1A18.9,18.9,0,0,0,484,461.1V44.63C484,27.79,463.64,19.36,451.73,31.27ZM405,393.8a8.2,8.2,0,0,1-8.2,8.2H216.21a8.19,8.19,0,0,1-5.79-14L391,207.42a8.19,8.19,0,0,1,14,5.79Z" transform="translate(-29.69 -25.69)"/><text class="cls-2" transform="translate(484.23 305.7)">OG<tspan class="cls-3" x="388.41" y="0">P</tspan></text><text class="cls-4" transform="translate(487.23 449.87)">Co<tspan class="cls-5" x="204.01" y="0">n</tspan><tspan class="cls-6" x="301.24" y="0">v</tspan><tspan class="cls-7" x="389.26" y="0">erte</tspan><tspan class="cls-8" x="700.37" y="0">r</tspan></text></svg>