<svg id="Warstwa_1" data-name="Warstwa 1" xmlns="http://www.w3.org/2000/svg" viewBox="0 0 454.31 454.31"><defs><style>.cls-1{fill:#a32424;}</style></defs><path class="cls-1" d="M459.73,41.27,354.16,146.84l26,26L366,187.05l-26-26-84.79,84.79,26,26L267,286.05l-26-26-80.79,80.79,26,26L172,381.05l-26-26L43.27,457.73C31.36,469.64,39.79,490,56.63,490H473.1A18.9,18.9,0,0,0,492,471.1V54.63C492,37.79,471.64,29.36,459.73,41.27ZM413,403.8a8.2,8.2,0,0,1-8.2,8.2H224.21a8.19,8.19,0,0,1-5.79-14L399,217.42a8.19,8.19,0,0,1,14,5.79Z" transform="translate(-37.69 -35.69)"/></svg>