<svg xmlns="http://www.w3.org/2000/svg" width="392.321" height="392.423" viewBox="0 0 392.321 392.423">
  <path id="Icon_ionic-ios-settings" data-name="Icon ionic-ios-settings" d="M364.434,200.66a50.485,50.485,0,0,1,32.387-47.1,200.109,200.109,0,0,0-24.214-58.337,51.161,51.161,0,0,1-20.536,4.393,50.372,50.372,0,0,1-46.077-70.9A199.5,199.5,0,0,0,247.759,4.5a50.529,50.529,0,0,1-47.1,32.387A50.529,50.529,0,0,1,153.561,4.5,200.109,200.109,0,0,0,95.224,28.714a50.372,50.372,0,0,1-46.077,70.9,49.5,49.5,0,0,1-20.536-4.393A204.532,204.532,0,0,0,4.5,153.664a50.426,50.426,0,0,1,32.387,47.1A50.541,50.541,0,0,1,4.6,247.861,200.109,200.109,0,0,0,28.816,306.2a50.393,50.393,0,0,1,66.511,66.511,201.277,201.277,0,0,0,58.337,24.214,50.349,50.349,0,0,1,93.993,0,200.109,200.109,0,0,0,58.337-24.214A50.443,50.443,0,0,1,372.5,306.2a201.277,201.277,0,0,0,24.214-58.337A50.724,50.724,0,0,1,364.434,200.66ZM201.58,282.292a81.733,81.733,0,1,1,81.733-81.733A81.711,81.711,0,0,1,201.58,282.292Z" transform="translate(-4.5 -4.5)" fill="#595959"/>
</svg>
